<?xml version="1.0" encoding="UTF-8"?><svg id="svg4177" xmlns="http://www.w3.org/2000/svg" viewBox="0 0 236.86 236.45"><defs><style>.cls-1{fill:#fff;stroke-width:0px;}</style></defs><path id="path4163" class="cls-1" d="m120.42,236.21q-.2-.4.5-1.2c1.2-1.2,1.8-2.6,2.6-5.7.8-3.3,2.3-11.2,2.1-11.4-.1-.1-3,.3-3.9.5-1.2.3-1.9.6-2.5,1.3-.5.5-.6.6-1,.6s-.4-.1-.4-.4c0-.2.1-.8.2-1.3.1-.5.2-1.6.3-2.4,0-.8.1-1.6.1-1.7.1-.4.4-.4,1.3-.2,1.6.4,7.3.2,10.6-.4,1.3-.3,1.9-.3,2.1,0,.1.1,0,.8-.5,2.5-.3,1.3-1.1,4.4-1.7,7-.6,2.6-1.3,5.4-1.6,6.1-.7,2.1-1.7,3.9-2.7,5-.6.6-2.3,1.4-3.7,1.8-1.2.2-1.6.2-1.8-.1h0Zm-17.7-.5c-3.2-.5-5.3-1.8-6.1-3.9-.4-.9-.4-2.9,0-3.8.5-1.4,1.8-2.7,3.3-3.5l.6-.3-.7-.7c-1.2-1.3-1.7-2.8-1.4-4.6.2-1.6,1-2.9,2.4-3.9,1.6-1.2,3.5-1.7,5.8-1.6,5.1.2,8.4,3,7.9,6.7-.1,1-.4,1.5-1,2.2-.6.6-2.3,1.8-2.6,1.8s-.1.2.8.9,1.8,1.8,2.1,2.7c.3.7.4,2.1.2,2.9-.3,1.8-1.7,3.5-3.6,4.4-1.6.8-2.6,1-4.9,1-1.2-.2-2.4-.2-2.8-.3h0Zm3.4-2.6c1.1-.4,1.8-1.2,2.1-2.3.3-1-.3-2-1.6-3-.8-.6-3.1-1.8-3.5-1.8s-1.3.9-1.7,1.7c-.5,1-.6,2.2-.3,3.1.2.7,1.1,1.7,1.7,2,1,.5,2.4.7,3.3.3Zm1.9-10.9c.7-.3,1.5-1.2,1.8-1.9.2-.4.3-.8.3-1.4,0-1.8-1-3-3-3.3-1.7-.3-3.1.4-3.5,1.9-.2.8-.2,1,0,1.8.3.9,1.4,2,2.7,2.7.5.3,1,.5,1,.5.2-.1.4-.2.7-.3h0Zm33,11.6c-.2-.3-.2-.4.2-.8.5-.5,1-1.7,1.3-2.7.5-1.9.7-5.1.7-10.9,0-2.4,0-4.3-.1-4.3-.1-.1-1.8.4-3.2.9s-2.3,1.1-2.8,1.8l-.4.6c0,.1-.5.3-.8.2q-.2-.1-.2-1.2c.1-1.2-.1-3.1-.3-4.1-.2-.8,0-.9,1.7-.9.8,0,1.9-.1,2.5-.2,2.4-.4,5.9-1.4,7.9-2.2,1.1-.4,1.2-.5,1.5-.2.2.1.2.3,0,2.1-.1,1.1-.3,4.5-.5,7.5-.4,7.1-.7,8.7-1.8,10.8-.5,1.1-1.1,1.8-2.3,2.6-1.1.7-2.6,1.5-3,1.5-.1-.3-.3-.4-.4-.5h0Zm-53.5-1.7c-1.7-.8-3.1-1.3-4.9-1.6-1.1-.2-2.1-.5-2.2-.5-.3-.1-.5-.5-.5-.8,0-.2.2-.4.6-.5.6-.3,1-.7,1.5-1.8,1.1-2.3,3-8.3,3.7-11.6.3-1.7.2-2.6-.6-3.1-.4-.3-.5-.6-.1-.9q.2-.2,1.9-.1c2,.1,3.5.1,4.9-.3.7-.2,1.1-.2,1.2-.1.4.3.4.5-.1,1.7-1.5,3.7-4.3,12.6-4.8,15.6-.3,1.5-.1,2.4.6,3.4.1.2.1.3,0,.5-.3.3-.6.3-1.2.1h0Zm70.9-7.6c-1-.5-1.6-1.4-1.6-2.7,0-1.7,1.5-2.9,3.3-2.8,1.3.1,2.3,1.2,2.4,2.7.1,1-.2,1.7-.9,2.3-.9.8-2.2,1-3.2.5h0Zm12.6-.5c-.1-.1-.2-.5-.2-1.3v-1.1l-.8-1.5c-1-1.9-2.5-4.6-5.6-9.8-3.1-5.3-3.2-5.4-3.2-5.7,0-.4.5-.8,1-.8.2,0,1.4.2,2.7.4,3,.5,16,2.9,16.3,3q.2,0,0-.3c-.5-.8-3-4.4-3.9-5.6-1.9-2.6-2.3-2.9-3.4-3.1-.6-.1-.9-.3-.9-.7,0-.3.3-.4,1.4-1.1.9-.5,1.7-1.1,2.4-1.8,1.1-1.1,1.4-1.2,1.8-.8.2.2.2.3.1.9-.1.7,0,.8.5,1.8,1.5,3,6.7,10.1,8.7,12.1,1,1,1.4,1.1,2.4,1,.6-.1.8,0,.9.1.2.3.2.7-.1.9-1.3.9-2.8,2.1-3.7,2.9l-1.1,1-1.9-.6c-3.3-1.1-5.8-1.6-11.2-2.6-1.5-.3-3-.5-3.5-.6l-.8-.1,1.4,2.3c1.7,2.8,3.2,5,3.8,5.9.5.7,1.1,1,1.8,1.1.5.1.7.4.7.8,0,.2-.4.4-1.4.9-.7.4-2,1.1-2.7,1.6s-1.4.9-1.5.9c.2.1.1,0,0-.1h0Zm-98.7-.2c-.9-.3-1.4-.7-1.7-1.5-.7-1.4-.1-3.1,1.2-3.8,1.4-.8,3.3-.1,4.1,1.3.5,1,.3,2.5-.5,3.4-.7.7-2,.9-3.1.6h0Zm-11.5-2.5c-.9-.8-2.1-1.5-4.3-2.8-3.9-2.2-5.7-3.6-6.8-5.1-1.3-1.9-1.3-3.9.1-5.9,1.2-1.7,2.8-2.6,5.5-2.9l.7-.1v-5.2c0-4.2,0-5.2-.2-5.6-.2-.5-.5-.5-1.3-.1-.8.5-3.9,3.4-6.8,6.4-5.1,5.2-5.4,5.7-5.4,7.1,0,.6-.2.9-.7.9-.1,0-.8-.6-1.5-1.3s-1.9-1.9-2.8-2.6c-.8-.7-1.5-1.4-1.5-1.5,0-.4.2-.6.8-.6.3,0,.7-.1.9-.2.5-.2,2.4-1.8,4.1-3.5,1.3-1.2,1.4-1.4,1.2-1.6-.3-.4-5.9-6.3-6.3-6.5l-.3-.2-2.3,2.3c-2.4,2.4-2.9,3-2.9,3.9,0,.4-.2.8-.5.8-.2,0-.6-.3-1.7-1.8-.7-.9-1.5-1.8-2.3-2.4-.9-.8-1.2-1.1-1.2-1.4-.1-.5.2-.7,1-.7.6,0,.8-.1,1.3-.3,1.9-1.1,10.3-8.8,11.8-10.8.6-.7.8-1.5.8-2.3,0-.4.1-.5.2-.6.6-.3.8-.2,1.6,1,1.1,1.6,1.7,2.2,3.1,3.4.7.5,1.2,1.1,1.2,1.2s-.1.3-.2.5c-.1.2-.3.3-.7.3-.3,0-.8.1-1,.2-.4.2-3.4,2.6-5,4.1l-.6.6,1.8,1.9c1,1,2.5,2.5,3.3,3.4l1.5,1.5,1.7-1.7c2.6-2.7,3.2-3.7,3.1-5.1q-.1-.7.3-.9c.5-.2.4-.3,1.8,1.4,1.3,1.5,2,2.3,3.3,3.2,4.1,3,5.2,3.9,5.6,4.6.4.6.5,1.8.3,5.8-.1,1.8-.1,3.4-.1,3.5,0,.2.4.5.9.9l.8.6,1.2-1.9c1.6-2.7,2-3.5,1.9-4.1,0-.3-.2-.6-.3-.8-.1-.2-.2-.5-.2-.6,0-.3.3-.6.6-.6.2,0,.8.5,2.1,1.6,1,.9,1.3,1.1,3,1.9,2,1,2.4,1.3,2.2,1.8-.1.2-.2.2-.5.2-.6,0-1.5.5-2.1,1.1-1.5,1.6-6.2,8.7-8.1,12.2-.8,1.4-.9,2.2-.7,3.1.1.6.1.7-.1.8-.3.1-.6.1-1.3-.5h0Zm-1.2-8.8c1.2-1.8,2.3-3.4,2.3-3.4,0-.1-.3-.4-.8-.7-1.5-1.2-3-1.7-4-1.3-.6.2-1.6,1.2-2.2,2-.7,1-.9,1.7-.9,2.8,0,.9,0,1.1.3,1.7.2.4.6.9.9,1.1.6.5,1.8,1.2,2,1.2.1,0,1.2-1.5,2.4-3.4h0Zm95.5,3.1c-2.4-.6-3-3.8-1-5.2,1.2-.8,2.6-.8,3.6.1,1.3,1.2,1.5,3.1.2,4.3-.7.6-2,1-2.8.8h0Zm-78.8-.9c-1.6-.5-2.5-2.4-1.7-3.9.8-1.6,2.5-2.2,4.1-1.3,1.9,1,2,3.7.1,5-.6.3-1.7.4-2.5.2Zm36.9-19.1c-9.2-.7-16.2-3.3-20.7-7.6-1.6-1.5-3.1-3.7-3.8-5.6q-.4-1.1-.7-1c-1,.2-3.4.2-5.1.1-6.3-.4-11.1-2.1-14.6-5-1.7-1.4-3.2-3.6-3.6-5.6-.3-1.1-.3-3.4,0-4.5,1.4-6,7.7-10.5,17.8-12.9l1.8-.4-3.5-5.8c-1.9-3.2-5.5-9.2-8-13.5-4-6.7-7-11.9-7.2-12h-2.8l-2.8.1-.1,1c-.4,2.8-1.9,14.7-2.1,15.7-.1.7-.2,1.3-.2,1.4,0,.2,4.2,0,5.6-.2.6-.1,1-.1,1.1-.1.2.2-1.5,2.6-2.8,3.8-2.3,2.2-3.1,2.3-10.4,2.3-2.5,0-4.6,0-4.6-.1,0,0,.3-.6.7-1.2.4-.6,1-1.7,1.3-2.4,1.1-2.4,1.2-2.5,4-21,2.2-14,3.7-24.2,3.7-24.7q0-.2-1.8-.2c-4.3.2-5.9,1-6.5,3.7-.2.9-.2,2.5,0,3.4.1.4.2.7.2.8,0,.2-1.6,1.2-4.3,2.6l-2.1,1.1-.3-.5c-.9-1.3-1.1-3.4-.6-5.1.7-2.3,2.2-4.1,5.3-6.1,2.7-1.8,6.3-3.2,10-3.8.7-.1.8-.2.9-.5,1.9-8.5,5.1-14.4,10.2-18.7l.6-.5-.2-.7c-.3-1.3-.3-3.2-.1-4.4,1.7-8.2,11.9-14.4,25.2-15.3,1-.1,2.5-.2,3.2-.2l1.4-.1.1-.6c1.5-7,13.3-11.9,25.5-10.5,7.5.9,16,4.3,21.9,8.9l1,.8h1.1c2.4,0,5.8.5,8.5,1.1,5.4,1.3,10.1,3.9,12.4,6.8,2.3,2.9,2.4,5.7.3,7.6-.8.7-2,1.3-3,1.5s-2.4.2-3,0c-.7-.2-1.5-.8-1.7-1.2-.3-.5-.4-1-.2-1,.1,0,.6-.2,1.1-.5,1.7-.9,2.5-2.1,2.3-3.7-.3-2.7-1.7-4.5-4.3-5.9-2.2-1.1-6-1.9-9.3-1.9h-1.1l1.1,1.2c1.3,1.5,2.3,2.8,3.1,4.2,3.6,5.9,4.5,13.7,2.2,18.5-.5,1-.7.8,1.7,2.1,1.8.9,3,1.5,4.7,2.1l1,.4.8-1.3c3.3-5,8.6-7.6,14.4-7.1,4.5.4,6.9,1.9,7.4,4.7.2,1.1,0,1.8-.7,2.9-1.3,2-4.4,3.8-8,4.5-1.1.2-1.6.3-4.1.3-1.6,0-3.5,0-4.1-.1l-1.2-.1-.4,1.8c-.2,1-.5,2.5-.6,3.3s-.3,1.6-.3,1.7l-.1.3,5,.1c6.1.1,8.6.3,11.7,1.1,5,1.3,8.6,4,10.7,8.2,1.5,2.9,2.1,6,2.1,10.1,0,5-1.1,9.6-3.6,14.5-2.6,5-6,9-11.5,13.1-4.1,3.1-8.3,4.6-14.9,5.2-2.9.3-8.5.4-11.3.3-2.2-.1-4.1-.3-4.2-.4,0,0,.2-.4.4-.7.6-.9,1-1.7,1.5-3.9.5-2.1,1.2-6,2-11.6.5-3.7.9-6.4,2.5-19.6.5-3.7,1.3-10.3,1.5-11.1l.1-.4-1.6.1c-3.2.2-4.5.4-5.9,1.1-1.2.6-1.8,1.2-2.3,2.1-.6,1.3-.5,2.7.4,4.2l.4.7-.6.6c-.8.8-2.4,2-4.2,3.2l-1.5,1-.3-.3c-.3-.4-1.1-2-1.4-2.8-.9-2.5.8-5.7,4.5-8.9,3.9-3.3,7.5-5,12.1-5.5.6-.1,1.1-.1,1.2-.2,0,0,.2-.5.3-1,.4-1.6.8-2.8,1.6-5,.4-1.1.8-2,.8-2.1s-.3-.3-.9-.4c-1.4-.4-3.3-1.2-5.5-2.3l-2.1-1-.9.8c-2.8,2.6-7.3,4.4-12.2,5-1.8.2-6.9.1-9.2-.2-7.7-1-15.7-3.8-23-8.1l-1.9-1.1-1.4.9c-3,1.8-6.3,3.3-9.1,4.1-4.9,1.4-10.9,1.6-15.5.5-4-.9-7.4-2.9-9.5-5.6-.6-.8-.5-.9-1.4.7-1.1,2-2.1,4.7-2.8,7.5-.5,1.7-1.4,6.2-1.3,6.3,0,0,1.5.1,3.2.1,6.8.2,10.4.9,13,2.4,1.5.9,2.9,2.7,3.5,4.5.9,2.6.2,7-1.8,10.3-1.7,2.8-3.7,4.9-8.5,8.6l-.4.3,1,1.7c.6.9,3.7,6.3,6.9,11.9,4.9,8.4,9.6,16.5,11.3,19.3.3.5.4.6.7.5,1.8-.3,8-.7,11.7-.7,13.2,0,26.1,3.3,34,8.7l1,.7,2.1-.7c4.2-1.3,7.8-2.2,10.9-2.7,2.2-.3,6.2-.4,8.6-.1,5.6.7,9,2.3,10.2,4.9.3.6.3.8.3,2.1s0,1.6-.3,2.4c-1.3,3.6-5.3,7-10.9,9.4-3.3,1.4-7.3,2.5-11.3,3.2l-1.6.3-.3.7c-1.8,4.7-5.8,8.6-11.9,11.6-4.1,2-8.6,3.3-13.6,4-1.7.4-7.2.5-9.2.3h0Zm9.8-3c5.4-.9,9.6-2.9,12.8-6.2,1.7-1.7,3-3.8,3.7-5.8l.2-.7-2.6.1h-5.4q-2.8-.1-3,.1c-.4.6-1.5,1.7-2.3,2.2-2.3,1.5-5.2,2.3-8.4,2.3-2,0-3.2-.3-4.8-1.1-1.2-.6-2.6-1.7-3-2.4-.2-.4-.1-.8.1-.8.1,0,.6.2,1,.4,1.3.6,2.3.8,4.1.7,1.2,0,1.7-.1,2.6-.4,1.2-.4,2-.9,2.7-1.5l.4-.4-1.3-.2c-2.1-.4-5.5-1.2-8-2.1l-2.4-.8-.7.3c-1.8.7-6.1,2.1-8.8,2.9-1.6.5-3,.9-3.1.9-.4.1.8,2.9,1.9,4.3.8,1.1,2.6,2.8,3.8,3.6,3.5,2.5,7.9,4.1,12.8,4.7,1.4.3,6.3.1,7.7-.1h0Zm-35.2-14.3c0-1,.2-3.2.4-3.9.3-1,1.2-3,1.9-3.9.7-.9,2.3-2.5,3.4-3.2l.8-.6-1.3-1.4c-2.4-2.5-4.2-4.8-6-7.5-.5-.8-1-1.5-1.1-1.5-.3-.1-3.9,1.3-5.6,2.2-2.5,1.4-4.8,3.3-5.8,5-1.6,2.6-1.9,5.5-.8,8.5.9,2.4,2.7,4.4,5,5.4,1.9.9,3.5,1.2,6.7,1.2h2.4v-.3h0Zm50.8-1.1h1.4l-.1-1.8c-.1-3.4-1.1-6.5-3.1-9.5-.4-.6-.8-1.1-.9-1.1-.3,0-3.2,1.2-5.5,2.2l-1.8.8.5.7c.7.9,1.4,2.4,1.6,3.4.2,1,.2,3.2,0,4.3-.1.5-.2.8-.1.9s3,.2,4.7.2c1.1-.1,2.5-.1,3.3-.1h0Zm-40-.6c.9-.2,2.6-.8,3.9-1.2,1.3-.5,2.6-.9,2.9-1l.6-.2-1.5-.8c-1.7-.9-3.5-2-5.1-3.2l-1-.8-.4.6c-1.1,1.7-1.8,4.8-1.6,6.5,0,.8-.3.7,2.2.1h0Zm24.6-.8c.2-.9.2-3.3-.1-4.4-.1-.5-.3-.9-.3-.9,0,0-1.2.5-2.6,1.1-1.4.6-3.2,1.4-4.1,1.8s-1.6.7-1.5.8c.3.2,2.5,1,3.6,1.3s4.1.9,4.6.9c.1-.1.3-.3.4-.6h0Zm27,0c1.9-.4,4.7-1.3,6.2-2.1,4.6-2.2,7-5.4,6.6-8.6-.4-2.9-3.3-4.9-7.5-5.1-3.1-.2-7.9.6-12.2,1.9l-.8.3,1,1c1.2,1.3,1.8,1.9,2.6,3.2,1.7,2.7,2.6,5.3,2.6,8.4,0,.7,0,1.3.1,1.3s.6-.1,1.4-.3h0Zm-34.2-5.6c5.4-2.4,5.4-2.5,5.4-2.6,0,0-.2-.4-.5-.7-1.1-1.4-3.2-2.7-5.1-3.2-3.1-.8-7.7-.5-10.8.8-1,.4-2.1,1-2.1,1.1,0,.2,2.2,2.4,3.2,3.3,2,1.8,4.7,3.7,5.1,3.5.2,0,2.3-1,4.8-2.2h0Zm14.4-6.3c1.7-.7,3.1-1.3,3.3-1.4q.3-.1.1-.4c-.5-.6-2.6-2.2-3.8-3.1-7.8-5.2-19.5-7.1-33.2-5.4-1.1.1-2,.3-2.1.3-.1.1,3.9,5.9,5.1,7.6.5.7,1,1.3,1.1,1.3,1.1-.5,4.3-1.3,6.2-1.6,7.5-1.2,14.6.2,19.2,4,.3.3.4.3.7.1.2,0,1.7-.7,3.4-1.4h0Zm41.6-24.7c2.7-.4,5.2-1.3,6.9-2.4,3.8-2.4,7-8.8,8.1-16,.1-.6.2-2.1.3-3.4.2-7.1-1.4-12-5.2-15.4-2.6-2.4-5-3.4-9.1-3.9-1.5-.2-5.6-.4-6.8-.3h-.9l-.3,2.5c-1.1,8.3-3,26.4-3.7,33.7-.4,4.8-.4,4.9-.3,4.9s.8.1,1.7.2c2.5.3,2.7.3,5.4.2,1.6.1,3.1,0,3.9-.1h0Zm-104.1-22.5c2.4-.4,3.9-1.2,5.4-2.7,2.2-2.1,3.3-4.7,3.4-8,.1-2.7-.5-4.3-2.2-6-.8-.8-1.2-1.1-2.1-1.6-1.3-.6-2.7-1.1-4.1-1.3-1.2-.2-4.2-.5-4.4-.4-.1,0-.2.2-.2.3s-.5,3.7-1.2,8c-1.4,9.3-1.7,11.5-1.6,11.6.4.4,5.3.4,7,.1h0Zm106.7-33.4c4.2-1.1,6.5-4.7,4.2-6.7-.8-.7-1.4-.9-2.9-.9-1.2,0-1.5.1-2.3.3-1.2.4-1.8.8-2.6,1.5-1.2,1.1-2.1,2.6-2.8,4.6l-.3,1,.3.1c.3.1,1.9.3,3.2.4.7.1,2.2-.1,3.2-.3h0Zm-40.1-.2c3.7-.7,7.2-2.5,10.5-5.5l.8-.7-1.8-1.2c-1-.7-3.1-2.2-4.7-3.4s-3-2.2-3.1-2.2c-.1-.1-.5.1-1.3.4-2.6,1.1-4.9,1.4-8.9,1.2-3.1-.2-5.6-.5-8.3-1-1.1-.2-2.1-.4-2.3-.5-.2,0-.6.2-1.7,1.1-.8.7-2.2,1.8-3.2,2.4s-1.7,1.3-1.6,1.4c.1.2,4.3,2.4,6.6,3.5,5.8,2.8,10.2,4.2,14.2,4.7,1.3.1,3.6.1,4.8-.2Zm-45.9-2.4c2.5-.5,5.1-2,9.2-5.1,1.1-.8,1.9-1.5,1.9-1.5,0-.1-2.4-1.5-4-2.4-6.2-3.3-11.3-3.9-16.8-2-.7.3-1.7.6-2.2.8l-.8.4.1.4c.5,2.9,1.7,5.3,3.7,7.1,1.2,1.1,2.6,1.9,4.1,2.3,1.1.3,3.4.3,4.8,0h0Zm59.9-7.4c1.7-2.7,2.4-7.3,1.6-10.6-.7-2.7-2.6-6.1-4.5-8.1l-.9-1-1.5.2c-1.8.2-3.3.5-4.8,1l-1.2.4.6.7c.8.9,1.4,1.8,2,3,.6,1.3.8,2.2.9,3.6.1,2.1-.3,3.5-1.4,4.7-.4.5-.5.6-.4.7s2.1,1.5,4.5,3.2,4.4,3.1,4.4,3.1c.2-.1.4-.5.7-.9h0Zm-45.1-2.1c.4-.3,3.9-3.3,4.2-3.5,0,0,0-.1-.1-.1s-.7-.4-1.5-.8c-4.3-2.4-6.9-5.2-8-8.5-.3-.9-.6-2.4-.6-3v-.5h-1.2c-4.8,0-10,1.2-13.4,3.1-2.7,1.5-5,4-6,6.4-.6,1.4-1.1,3.5-.8,3.5,0,0,.6-.2,1.2-.4,5.9-1.8,10.5-1.7,16.5.2,2.5.8,4.4,1.6,6.9,2.9,1,.5,2,1,2.1,1,.1.1.4-.1.7-.3h0Zm24.2-2.8c1.5-.4,3.5-1.5,3.3-1.8-.1-.2-3.2-2.2-5-3.3l-1.5-.9-.7.5c-.8.5-2.2,1.7-4.6,3.8-1.6,1.4-1.6,1.2.4,1.6,1.8.3,1.9.3,4.7.3,2.1,0,2.6,0,3.4-.2Zm-14.3-5.5c1.1-.9,2.7-2.2,3.4-2.7l1.4-1.1-.6-.2c-1.1-.5-3.5-1.3-5.3-1.8-2.2-.6-6-1.6-6.3-1.6-.2,0-.2.1-.1.9.1,1.3.4,2.6.7,3.4.6,1.6,2,3.3,3.6,4.6.6.5.7.5.9.4.2-.1,1.1-.9,2.3-1.9Zm20.5.5c.3-.7.3-.9.4-2.2,0-.8,0-1.8-.1-2.2-.2-1-.6-2.1-.8-2.1-.4,0-6.2,3.5-6.2,3.7,0,.1.9.6,2.1,1.2,1.1.6,2.5,1.4,3,1.7.5.3,1,.6,1.1.6s.3-.3.5-.7h0Zm-12.2-6.6c1.8-1.1,5.2-2.7,7.6-3.6l.3-.1-.6-.4c-.8-.6-1.7-1-3-1.3-.8-.2-1-.3-1-.5,0-.3.2-.4,1.2-.5,1.4-.1,4.5.4,6.2,1.2l.9.4,1.1-.3c1.2-.3,3.8-.7,5.4-.8q1.3-.1-.5-1.2c-4.5-2.7-9-4.4-13.7-5.1-6.3-.9-11.5-.1-15.4,2.5-2.1,1.4-3.7,3.5-4,5.3l-.1.4,1.5.3c3.8.9,7.8,2.2,11,3.6,1,.4,1.8.8,1.9.8s.6-.3,1.2-.7h0Zm-2.8,89c-1.4-.3-2.4-.5-3.1-.9l-.5-.2.1-.6c.3-2.5,1.8-5.7,4-8.2.4-.4.4-.5.5-.1.1.5,1.1,1.7,1.9,2.3,1.6,1.2,3.9,2,6.1,2.2,1.5.1,2.4-.1,3.6-.6,2.3-1.1,3.6-3.4,3.2-5.7-.4-2.8-3.1-6.6-8.5-12.2-5.7-6-7.4-8.9-7.7-12.9-.4-5.5,2.9-10.8,8.7-13.9,4-2.2,9.2-3,12.3-2,1.6.5,3.2,1.6,3.7,2.4.2.4-2.4,3.7-4.4,5.4-1.1,1-1.2,1.1-1.3.8-.2-.8-1.3-2-2.4-2.6-2.4-1.3-5.7-1.4-7.6-.3-.8.5-1.6,1.4-1.9,2.2-.7,2-.2,5.6,1.2,7.9.8,1.3,1.6,2.3,4.4,5.3,3.8,4.1,4.3,4.7,5.3,5.9,3.3,4,4.7,7,4.4,10-.2,2.6-1,4.8-2.5,7.1-2.8,4.3-7.7,7.5-12.9,8.8-1.8.1-4.8.2-6.6-.1h0Zm-26-.3s.3-.6.6-1.3c1.6-3.5,2.5-7.4,4.6-22.7,2-14.3,3.1-22.2,2.9-22.3-.2-.1-5,0-6.2.2-.5.1-1,.1-1,.1-.1-.1,1-1.4,1.9-2.4,1.2-1.2,2.5-2.4,3.2-2.7.8-.4,2.5-.7,4.3-.9,1.6-.2,7.6-.3,7.6-.2,0,0-.2.8-.5,1.7-1.3,4.7-2.5,11.2-4.4,24.6-1.9,13.5-2.8,20.1-2.7,20.3.2.3,5.2,0,6.6-.4.5-.1.9-.2,1-.2,0,0-.1.5-.3,1-.6,1.8-1.5,2.9-3.4,4-1.1.7-1.9.8-4.1,1-1.4.1-10.1.3-10.1.2h0Zm102.8,61.1c-.4-.7-1.6-2.3-2.3-3s-.8-.9-.5-1.2c.2-.2.3-.2,1.6-.2,1.4,0,1.5,0,2.3-.4.9-.4,2.2-1.4,3-2.3,1.3-1.4,1.9-2.9,1.9-4.4,0-1.8-.7-3.3-2.5-5.1-2.3-2.3-4.6-3.4-6.9-3.4-1.7,0-2.9.5-4.2,1.8-.8.8-1.5,1.9-1.5,2.4,0,.2,1,1.3,2.6,2.7,1,.9,1.8,1.3,2.6,1.2.6-.1.7,0,.9.3.2.4.2.6-.6,1.1-1.1.8-3,2.7-3.5,3.5-.4.7-.5.7-.8.7-.5,0-.6-.1-.7-.7-.1-.7-.8-1.5-3.3-4.1l-2.5-2.5.7-1.3c1.3-2.5,2.8-4.6,4.8-6.6s4-3.2,6.2-3.6c1.3-.3,3.3-.2,4.5.2,3.9,1.2,7.3,4.8,8.3,8.6.2.9.2,1.2.2,2.6-.1,1.8-.3,2.8-1,4.4-.9,2-1.7,3-4.9,6.1-1.6,1.6-3.1,3.1-3.2,3.3-.4.5-.9.4-1.2-.1h0Zm16.2-17.9c-.1-.1-.1-.3-.1-.5,0-.7-.6-1.6-1.6-2.5-2.9-2.5-9.6-7.1-11.9-8.2-.8-.4-.9-.4-1.7-.3-.4,0-1,.1-1.2.1-.3.1-.4,0-.6-.1-.4-.4-.2-.7,1-2.2.9-1,1.5-2,2.4-3.4.7-1.1,1.3-2,1.4-2.1.1,0,.3,0,.5.1s.3.3.4.8c.1.8.5,1.4,1.6,2.3,2.2,1.9,7.5,5.7,10.6,7.5,1.9,1.1,2.7,1.4,3.8,1,.4-.1.5-.1.7.1.3.3.3.8-.1,1.2-.8.8-3.2,4.1-3.9,5.4-.2.3-.4.6-.4.7-.2.3-.7.3-.9.1h0Zm-188.4-5.3c-3.9-.9-7.2-4-8.8-8.2-1-2.6-.9-5.5.2-7.8,1.4-2.9,4.6-5.6,8-6.6,1-.3,1.2-.3,3-.3,1.6,0,2,0,2.8.3,3.3,1,6.2,3.5,7.8,6.8.7,1.6,1,2.5,1,4.4.1,1.5,0,1.8-.2,2.8-.9,3.9-4.2,7.2-8.5,8.4-1.3.4-3.9.5-5.3.2Zm1.4-5c1.1-.3,3.5-1.5,4.6-2.4,1.8-1.3,2.9-2.7,3.5-4.3.4-1.1.4-2.4,0-3.4-.3-.9-1.4-2.1-2.3-2.5-2.2-1.1-5.4-.2-8.7,2.3-4.2,3.2-5.1,6.6-2.3,9.2,1.3,1.3,3,1.7,5.2,1.1h0Zm193.9-1.5c-.7-.7-1.5-1.2-2.6-1.6-.7-.2-.8-.5-.6-1q.1-.3,1-.3c1.1,0,1.7-.2,2.5-1.1,1.3-1.3,1.8-3.1,1.2-4.2-.5-.8-1.6-1.3-2.5-1.2-.7.1-2.2.9-3.4,1.7-1.5,1.1-2.4,1.6-3.3,2-.7.3-1,.3-2.2.3h-1.4l-1-.5c-1.7-.8-2.9-2.2-3.3-3.9-.2-.8-.2-2.6,0-3.5.4-1.7,1.1-3.1,2.7-5.6.5-.8,1.1-1.8,1.3-2.2.3-.7.5-.9.8-.9.1,0,.5.4,1.1.9.8.7,1.3,1,2.2,1.5q1.2.6,1.2,1c0,.2-.1.4-.1.5-.1.1-.6.1-1.2.2-1.3.1-2.1.4-3,1.3-1.2,1.2-1.8,2.9-1.3,4,.3.7.7,1.1,1.6,1.3,1.2.3,2.3-.1,4.8-1.8s3.7-2.2,5.5-2c2.3.1,4.1,1.3,5.1,3.1.7,1.4.9,3.1.4,4.8-.3,1.2-1.3,3.3-2.3,4.7-.4.6-1,1.5-1.2,2.1-.9,1.4-1,1.4-2,.4h0Zm-209.4-14.2c-.1-.1-.1-.3-.1-.4,0-.6-.9-3.2-2-5.8-2-4.9-2.4-6.4-2.4-9.4,0-1.8,0-2,.3-2.9,1-2.8,3.3-4.8,7-6,4.6-1.5,8.7-.6,11.7,2.6,1.8,1.9,2.8,3.9,3.8,8,.6,2.3.7,2.6,1.6,4.5.6,1.3,1,2.1.9,2.3-.1.4-.5.4-1.2,0-.6-.3-.8-.3-1.6-.3-2.2,0-9.6,2.5-14,4.6-1.2.6-1.7.9-2.1,1.3-.3.3-.6.7-.6.9s-.1.4-.2.5c-.3.3-.9.3-1.1.1h0Zm3-9c4.8-1.5,11-3.8,11.4-4.2.5-.5.1-2.6-.6-4-1-1.9-3.1-2.8-5.6-2.5-3.9.5-7.3,2.4-8.5,4.8-.7,1.5-.8,2.7-.2,4.3.3.9,1,2.4,1.1,2.4-.1,0,1.1-.3,2.4-.8h0Zm215.3,5.9c-.5-.2-1.4-.6-2.2-.8-1.1-.3-1.3-.4-1.4-.7-.1-.4,0-.6.6-.9,1.2-.6,2.4-2.4,3-4.8.2-.7.3-1.3.4-1.4,0-.1,0-.2-.2-.3-.1,0-1.4-.5-2.8-1s-2.6-.9-2.6-.8c-.1.2-.9,3.5-1,4.4-.1.6-.1,1.3-.1,1.7.1.8,0,1.2-.4,1.2-.1,0-.6-.2-1-.4-.8-.4-2.4-.8-2.9-.8-.6,0-.7-.8-.2-1.3.2-.2.6-.8.9-1.4.5-1,1.6-4.1,1.6-4.4,0-.2-1.9-.7-3.9-1.1-1.5-.3-1.7-.3-2.1.8-.6,1.2-1.2,3.5-1.3,4.6-.1.9,0,1,.3,1.8.5,1.1.5,1.6-.1,1.6-.5,0-2.9-1.7-3.5-2.5-.3-.4-.3-.5-.3-1.1,0-.9.5-2.6,1.3-4.6,1.5-3.7,1.8-4.7,2.2-6.9.2-1.1.4-2.1.5-2.3.3-.4.6-.3.9.1.7,1.3,1.5,1.9,3.7,2.8,4.5,1.9,11.2,3.7,13.4,3.7.8,0,1,0,1.6-.4.6-.3.7-.3,1-.2.4.3.5.5.2,1-1.2,2.5-4,12.2-4,13.9.1,1.1-.4,1.2-1.6.5h0Zm-4.2-20.2c-3.2-.5-5.7-1.9-7.4-4.1-1.4-1.8-2.1-3.9-2.2-6.4-.1-1.7.1-3.2.6-5.9.4-2,.4-2.1.4-4.3,0-1.3,0-2.4.1-2.5.2-.3.6-.2,1.1.4.8,1,2.2,1.4,5.7,2,3,.4,5.1.6,8.6.7,3.3.1,3.5.1,4.1-.2.4-.1.9-.4,1.1-.7.5-.5.7-.5,1.1-.2q.3.2.1,1.1c-.3,1.5-.4,2.6-.5,5.9-.1,3.1-.3,4.9-.7,6.5-.6,2.7-1.7,4.7-3.3,6.1-.7.6-2.2,1.3-3.3,1.6-1.1.2-4.2.2-5.5,0h0Zm4.9-6.2c2.3-.6,4-2.2,4.4-4.3.2-.8.3-2.7.2-3.1l-.1-.3-2.6-.3c-3.4-.4-8.5-.9-10.5-1q-1.6-.1-1.9.2c-.5.6-.8,1.7-.8,3.2,0,1.3,0,1.5.3,2.1.9,2,3.1,3.2,6.5,3.6,1.2.3,3.7.2,4.5-.1h0Zm-226.1,3.9q-.3-.1-.3-1.1c0-2.9-.8-9.9-1.5-12.7-.2-.7-.3-1.5-.4-1.7-.1-.5.2-.6,1.3-.5.8.1,1.9,0,3.4-.2.5-.1.6,0,.7.2.2.4.2.6-.3,1.1-.9,1-1.2,2.9-.8,5.2.3,2.1.2,1.9,1.4,1.8,2.6-.2,4.3-.3,4.5-.4q.2-.1.1-1.3c-.3-2-.7-3.8-1.2-4.7-.3-.5-.4-1-.4-1.2v-.3l1.5-.1c.8,0,1.9-.1,2.3-.2.6-.1.8-.1.9,0,.2.2.3.8.1,1-.2.2-.3,2-.2,3.8.1,1,.1,2,.2,2.2l.1.4,1.3-.2c.7-.1,1.9-.3,2.6-.4q1.8-.4,1.8-2.4c0-.8-.1-2-.2-2.7-.3-2.2-.8-3.3-1.8-4-.4-.3-.5-.6-.4-1.1.1-.2.6-.2,1.9,0s2.4.6,2.7.9c.6.6.9,2,1.1,5.6.3,6.5.3,6.3.7,7.8.4,1.7.5,2.7.2,2.9-.1.1-.3.1-.4,0-1.6-1.2-2-1.3-5.5-1.2-3.8.1-7.7.5-11,1.2-2.2.5-2.8.8-3.7,1.9q-.2.6-.7.4h0Zm7.6-21.9c-.6-.1-1.6-.8-1.9-1.4-.3-.5-.4-.7-.4-1.7,0-1.2.2-1.7.9-2.4,1.2-1.1,3.3-1,4.4.2.6.6.7,1.2.7,2.2,0,1.4-.5,2.3-1.6,2.9-.4.2-1.5.3-2.1.2Zm214.8-.7c-.7-.4-1.3-1.1-1.5-1.8-.2-.8-.2-1.9.1-2.5s1.1-1.4,1.7-1.6c1-.3,2.2-.1,3,.5,1.3,1,1.4,3.5.2,4.7-.8,1.1-2.4,1.3-3.5.7h0Zm-203.2-6.5c-.5-.7-1-1.1-1.9-1.4-3-.9-12.8-2.3-15.3-2.2-1,.1-1.7.3-2.1.8-.3.3-.8.3-1.1.1q-.2-.2.1-1.5c.3-1.3.7-3.9.8-5.6.1-1,.1-1.2.3-1.4.4-.3.6-.2.9.3.4.6.6.8,1.3,1.1,1.6.7,10.6,2.2,14.4,2.3,2,.1,2.6-.1,3.4-.8.6-.5.8-.6,1.2-.2.3.3.3,0-.3,2.7-.2,1-.4,2.1-.5,3.7s-.2,2.3-.3,2.4c-.2.1-.7,0-.9-.3Zm199.7-3.5c-.2-.3-.2-.5,0-.9.2-.3.2-.6.2-2,0-1.8-.3-4.5-.6-4.5-.2,0-3.4.7-4.2,1-.5.1-1,.3-1.3.5-.5.3-1.1.9-1.4,1.5-.1.2-.2.4-.3.5-.3.1-.7-.1-.8-.3,0-.1-.2-1.2-.2-2.3-.2-2-.2-2.2-.8-3.9-.6-1.9-.7-2.5-.4-2.6s.7-.1.8,0c.1.2,1,.6,1.7.7,1.2.2,4.9-.2,9.4-1.1,3.2-.6,5.9-1.3,6.7-1.7.8-.3,1.5-1,1.7-1.5.1-.3.2-.3.6-.3.6,0,.7.2.7.9,0,2,1.7,10.6,2.7,13.6.2.7.4,1.3.4,1.4,0,.4-.3.5-.9.4-.8-.1-2.3.1-3.4.5-.8.3-1,.3-1.2.2-.3-.2-.2-.5.1-1.1.9-1.3,1.1-3.7.5-6.3-.2-.8-.4-1.5-.4-1.6-.1-.1-4.9.6-6.3.9l-.5.1.3,1.3c.6,2.7,1.1,4.1,1.7,4.9.3.4.4.6.4.9v.4l-1.3.1c-.8.1-1.7.2-2.3.4q-1.4.2-1.6-.1h0Zm-198.7-6.3c-.7-.5-1.8-1-3-1.3-.9-.2-1.1-.3-1.2-.6-.2-.5,0-.7.9-.9.9-.2,1.6-.5,2.3-1.2,1.3-1.2,2-3.3,1.5-4.7-.3-.9-1.1-1.4-2.2-1.4-1.2,0-1.9.5-4,2.5-2.6,2.5-3.7,3.2-5.7,3.3-2.5.1-4.6-1-5.7-3-1.2-2.2-.9-5,.7-9.2.4-1,.8-2.1.8-2.3.2-.8.6-.9,1.3-.4.6.5,1.6.9,2.7,1.1,1,.2,1.3.4,1.3.8s-.3.6-.8.6c-.6,0-1.5.5-2,1-.5.6-1.1,1.8-1.2,2.7-.3,1.8.7,3,2.4,3,.9,0,1.8-.6,3.8-2.6s2.8-2.6,4-3.1c3.1-1.3,7,.7,7.8,4,.6,2.4.3,4.5-1.3,8.4-.5,1.2-.9,2.4-1,2.7,0,.3-.1.5-.2.6-.1.5-.7.4-1.2,0h0Zm192.3-11.4c-2.3-.4-4.9-1.9-6.4-3.6-3.1-3.7-4-8.5-2.4-12.5,1.3-3.1,4.5-5.7,8.4-6.7,1.5-.4,4.1-.4,5.4,0,4.3,1.2,7.5,4.9,8.5,9.8.3,1.4.2,4-.2,5.2-1,3.3-3.7,5.8-7.5,7.2-1.8.7-4.1.9-5.8.6h0Zm1.6-5.7c.6-.2,1.7-.5,2.3-.8,4.3-1.8,6.5-4.4,6.1-7-.2-1-.6-1.9-1.3-2.6-1.6-1.7-4.3-2-7.7-.8-3.1,1.1-5.3,2.8-6.3,4.8-.4.8-.4,1-.4,2s0,1.2.4,1.9c.6,1.3,1.8,2.3,3.1,2.6.9.3,2.6.2,3.8-.1h0Zm-188.6,3.2c-.1-.1-.2-.4-.3-.7-.3-.8-1.2-1.6-2.7-2.6s-5.2-2.8-8.3-4.3c-4.2-1.9-4.9-2.1-6-1.8q-1.2.3-1.4.1c-.1-.1-.2-.3-.2-.4s.3-.7.7-1.3c.8-1.3,1.8-3.4,2.4-5,.4-1,.5-1.2.8-1.3.4-.2.7,0,.9.7.2.7.6,1.2,1.1,1.6,1.5,1.2,9.6,5.3,12.3,6.2.8.3,1.2.3,1.5,0,.3-.2,1.1-1.7,1.4-2.8.3-.9.3-1.6,0-2.7-.3-.8-.3-.9-.1-1.2.3-.4.7-.3,1.2.2,1.3,1.3,2.5,3.2,2.5,3.7s-.5,1.6-2.1,4.9c-.8,1.7-1.8,3.8-2.1,4.7-.3.9-.7,1.8-.8,1.9-.3.3-.7.3-.8.1h0Zm6.4-14.4c-.2-.1-.4-.3-.4-.6,0-.1-.1-.5-.3-.8-.8-1.6-8.7-12.6-11.4-16-.6-.7-1-1.3-1-1.3,0,0,.3-.6.8-1.2.8-1.2,2.1-3.3,2.1-3.5,0-.4.2-.4,3.2.6,3.4,1.1,11.3,3.4,15,4.3,2.4.6,3.4.7,4.4.5.5-.1.6-.1.8.1.1.1.2.3.2.4s-.6.8-1.3,1.5c-1.2,1.3-1.9,2.2-2.7,3.7-.3.5-.4.7-.7.7-.4,0-.8-.2-.8-.4,0-.4-1.5-1.2-3.6-2-.9-.3-1.1-.3-1.2-.2-.1.1-2.9,4-3.7,5l-.2.7.6.7c1.2,1.4,2.6,2.7,2.9,2.8.5.1.7.2.8.6.1.3,0,.4-.4.8-.8.8-1.4,1.8-2,2.8-.4.9-.6,1-1.1.8h0Zm-1.1-12.7c.8-1.1,1.5-2,1.5-2.1s0-.2-.1-.2c-2.4-.7-6.9-1.9-7-1.8,0,0,.1.3.3.6.4.5,3.9,5.5,3.9,5.5-.1-.1.6-.9,1.4-2Zm164.4,6c-.8-.7-2-2.3-4.1-5.1-1.3-1.8-2.3-3-3.3-4.1s-1.4-1.5-1.4-1.7c0-.4.2-.5,1.1-.5,1.1,0,1.9-.3,3.8-1.6,2.3-1.5,7.4-5.6,9.9-7.9.9-.9,1.4-1.7,1.4-2.6,0-.5,0-.6.3-.8.5-.3.8-.2,1.3.7.6,1,2.6,3.5,3.7,4.7.6.6.8.9.8,1.2,0,.6-.1.6-1.2.6-.9,0-1.1,0-1.7.4-1.9.9-8.6,6.2-10.9,8.5-.8.8-.8,1-.4,1.8.4.8,1.7,2.3,2.7,3.2.9.9,1.8,1.4,2.6,1.5.7.1.8.2.8.7,0,.3-.1.4-.3.5-.7.2-3.2.8-4,.9q-.5.1-1.1-.4h0Zm10.4-2.6c-1.4-.7-2.1-2.4-1.7-3.9.2-.7,1.1-1.6,1.8-1.9,1.3-.5,2.3-.3,3.3.7.8.8,1.1,1.6,1,2.6-.2,2.2-2.5,3.5-4.4,2.5h0Zm-159.7-9.1c-.1-.1-.2-.3-.2-.7,0-.7-.3-1.2-1.2-2.4-2.8-3.4-8.4-9-10.3-10.3-1-.6-1.4-.7-2.3-.5l-.7.2-.2-.3c-.1-.1-.2-.4-.2-.5s.4-.6.9-1.1c.8-.7,2.6-2.6,3.3-3.5l.2-.3,2,.4c4.6.9,8.6,1.2,13.9,1.2h2l-1-1.3c-1.5-2-3.6-4.5-4.4-5.5-1-1.1-1.6-1.5-2.4-1.6-.8-.1-1-.2-1-.7,0-.3.1-.4,1-1,1-.7,3.2-2.3,3.6-2.9.3-.3.6-.4.9-.1.2.1.2.3.2,1,0,.8.1,1,.4,1.6.9,1.5,6.4,8.9,8.8,11.8,2.8,3.4,2.8,3.5,2.3,4.1-.2.2-.3.3-1.7.3-1.9,0-8.8-.3-13.7-.6-2.1-.1-4-.2-4.3-.2h-.5l1.2,1.3c2,2.2,5.9,6.1,6.4,6.3.2.1.7.2,1.2.3.7.1.8.1.9.4.1.2.1.3.1.4s-.6.6-1.3,1.2c-.8.6-1.7,1.5-2.2,2.1-1,1.1-1.2,1.2-1.7.9h0Zm136.8-4.5c-4.6-1.1-8.4-4.7-9.5-9-.3-1.3-.3-3.7.1-4.9.4-1.5.8-2.3,1.6-3.5,4.4-6.6,12.5-7.4,18.2-1.8,2.5,2.5,3.7,5.3,3.5,8.4-.1,2.1-.8,3.9-2.2,5.9-1.7,2.4-4.1,4.1-6.5,4.8-1.1.2-4.1.3-5.2.1h0Zm.7-4.2c1.6-.3,3-1.3,4.7-3,1.8-1.9,3.1-3.9,3.5-5.6.3-1,.2-2.5-.2-3.2-.4-.8-.8-1.3-1.6-1.9-2.4-1.8-5.6-.9-8.7,2.4-1.1,1.2-1.8,2.1-2.4,3.4-.7,1.4-.9,2.3-.8,3.5.1,1.3.5,2.2,1.4,3.1.8.7,1.2,1,2.1,1.2.8.2,1.2.2,2,.1Zm-119.1-5.7c-.1-.1-.1-.8-.1-1.5v-1.4l-.7-1.5c-1.8-3.7-5.7-9.7-7.7-11.8-.8-.9-1.3-1.1-2.2-1.3-.6-.1-.8-.3-.7-.7,0-.2.1-.4.4-.5,1.4-.7,3.1-1.8,5-3.1,3.7-2.7,5.5-3.7,7.7-4.5,3.8-1.2,7-.4,9.6,2.5,1.4,1.6,2.8,4,3.3,5.9.2.8.3,1.2.3,2.9,0,1.9,0,2-.4,3.2-.9,2.4-2.6,4.5-5,6.2-.7.5-2.2,1.3-3.3,1.9-2.4,1.2-2.6,1.3-4.4,2.8-1.2,1-1.6,1.2-1.8.9h0Zm6.2-7.5c3.3-1.3,4.6-3.7,3.7-6.7-.8-2.9-3.3-6.3-5.4-7.4-1.8-.9-3.6-1-5.3-.1-.7.4-2.6,1.8-2.6,2,0,.4,6.4,10.6,7.6,12.1.5.5,1,.5,2,.1Zm91,3.6c-5-.8-9.1-4.3-10.1-8.7-.3-1.2-.3-3.4-.1-4.6.6-2.9,2.3-5.7,4.4-7.4,1-.8,2.9-1.8,4-2,1.1-.3,3.2-.4,4.4-.2,3.2.5,6.6,2.5,8.5,4.9.7.9,1.5,2.6,1.8,3.8.3,1.2.3,3.2,0,4.4-.5,2.6-2,5.2-3.8,6.9-1.4,1.3-2.8,2.1-4.6,2.6-1.1.3-3.3.4-4.5.3h0Zm1.1-3.9c1-.3,1.7-.8,2.7-1.8,1.3-1.3,2.4-3.3,3.2-5.6,1.2-3.7.6-6.2-1.8-7.5-2.1-1.1-4.1-.7-6.1,1.2-2.6,2.4-4.3,6.7-3.9,9.6.2,1.1.6,2,1.3,2.8,1.3,1.3,3,1.8,4.6,1.3h0Zm-16.7-3c-1.4-.6-2.9-.9-4.5-1.1-.7-.1-1.4-.2-1.5-.3s-.1-.3-.1-.5c0-.3.1-.4.3-.6.5-.2.8-.6,1.1-1.3s1.8-5.5,1.9-6.1l.1-.5-2.9-.7c-4.2-1-6.2-1.4-6.3-1.3-.1.2-.8,3.8-.9,4.9-.1.6-.1,1.4-.1,1.6.1.7.4,1.5.7,1.7.3.3.4.6.3.9-.1.2-.2.3-.3.4-.1,0-1-.2-2.1-.5-1.6-.5-2.3-.6-3.6-.8q-2.8-.3-2.8-.9c0-.3.1-.4.6-.6.8-.4,1.1-.8,1.5-1.9,1-3,3-13.2,3.1-15.2,0-.8-.1-1-.7-2q-.2-.3,0-.6c.2-.4.5-.4,1.3-.1.6.2,3.3.7,5.2.9,1.5.2,1.7.3,1.7.8,0,.1-.2.4-.5.6-.3.2-.6.6-.8.9-.5,1-1.9,6.6-1.8,6.8.1.1,7.7,1.9,8.9,2.1l.5.1.3-1.2c1.2-5.1,1.3-5.8.8-6.7-.3-.6-.3-1.1.1-1.2.1,0,1,.2,2.1.5,1.2.4,2.3.7,3.2.8,1.8.2,2,.3,2.2.7q.2.3-.2.6c-1.2.9-1.3,1.1-1.9,3-1.6,5-3.2,11.4-3.3,13.9q-.1,1.1.4,1.9c.4.7.4.8.3,1.1-.6.5-1.1.4-2.3-.1h0Zm-54.7-1.8c-.1-.2-.2-.4-.1-1.2.1-1,.1-1.8-.3-3.2-.2-.9-.2-1,0-1.2.4-.4.8-.3,1.3.4.9,1.2,2.5,1.9,4,1.7,2-.2,3.3-1.2,3.3-2.6,0-.7-.4-1.6-1-2.1s-2.1-1.2-3.8-1.7c-2.1-.6-3.1-1.1-4.1-2.1-2.5-2.5-2.6-6.2-.2-8.5,1.4-1.4,3.9-2.3,7.6-2.7,1.1-.1,2.2-.3,2.5-.4.5-.2.6-.2.9,0s.3.2.2.8c-.2,1-.1,2.1.3,3.2l.3,1-.3.3c-.4.4-.7.3-.9-.1-.2-.4-1-1.2-1.6-1.4-.7-.3-2.5-.3-3.4.1-1.6.6-2.3,1.9-1.6,3.3.5,1.1,1.5,1.7,4.5,2.6,2,.6,2.7.9,3.7,1.6,2.3,1.6,3,5,1.6,7.7-.5.9-1.2,1.6-2.2,2.3-1.7,1.1-3.8,1.7-7.1,2-.8.1-1.8.2-2.2.3q-1.2.2-1.4-.1h0Zm23.4-2.5c-2.7-.5-4.9-1.7-6.3-3.5-1.8-2.2-2.6-5.1-2.3-8.4.4-4.4,2.2-7.3,5.6-8.9,2.3-1.1,4.4-1.4,8.8-1.1,1.6.1,3.2.2,3.5.1.7-.1,1,.1.9.6-.3,1-.5,2.6-.6,3.6,0,.7-.1,1.3-.1,1.3-.1.1-.3.1-.5.1-.3,0-.4-.1-.7-.5-1.3-2.2-5.6-3.2-8-1.8-1.3.8-2.3,2.3-2.7,4.1-.3,1.3-.3,4.6,0,5.8.3,1.3.9,2.5,1.7,3.3,1.2,1.2,2.6,1.8,4.7,1.8,1.9,0,3.4-.4,4.4-1.2.6-.4.8-.5,1.2-.2q.2.2-.1,1.2c-.4,1.3-1,2.5-1.4,2.8-.4.4-1.5.7-2.8.9-1.4.2-4.2.2-5.3,0h0Zm-31.7-4.2c-.7-.4-1.2-1-1.5-1.9-.2-.8-.2-1.1,0-1.9.4-1.3,1.7-2.1,3.2-2.1.9,0,1.5.3,2.1.9,1.4,1.6,1.1,3.8-.8,4.8-.5.3-.8.4-1.5.4-.7.1-.9.1-1.5-.2h0Z"/></svg>