<svg width="560" height="166" viewBox="0 0 560 166" fill="none" xmlns="http://www.w3.org/2000/svg">
<g clip-path="url(#clip0_4_43)">
<path d="M77 32C70.4339 32 63.9321 33.2933 57.8658 35.806C51.7995 38.3188 46.2876 42.0017 41.6447 46.6447C37.0017 51.2876 33.3188 56.7996 30.806 62.8658C28.2933 68.9321 27 75.4339 27 82C27 88.5661 28.2933 95.0679 30.806 101.134C33.3188 107.2 37.0017 112.712 41.6447 117.355C46.2876 121.998 51.7996 125.681 57.8658 128.194C63.9321 130.707 70.4339 132 77 132L77 82V32Z" fill="white"/>
<path d="M86 82C92.5661 82 99.0679 80.7067 105.134 78.194C111.2 75.6812 116.712 71.9983 121.355 67.3553C125.998 62.7124 129.681 57.2004 132.194 51.1342C134.707 45.0679 136 38.5661 136 32L86 32V82Z" fill="white"/>
<path d="M186.402 55.3008H188.428C191.327 55.3008 193.508 54.7253 194.969 53.5742C196.452 52.4232 197.193 50.5527 197.193 47.9629C197.193 45.5501 196.529 43.7682 195.201 42.6172C193.895 41.4661 191.837 40.8906 189.025 40.8906H186.402V55.3008ZM207.619 47.5977C207.619 49.7227 207.298 51.7591 206.656 53.707C206.014 55.6549 204.952 57.3704 203.469 58.8535C202.008 60.3366 200.071 61.5208 197.658 62.4062C195.268 63.2917 192.301 63.7344 188.76 63.7344H186.402V81H176.109V32.457H189.59C192.711 32.457 195.4 32.8112 197.658 33.5195C199.938 34.2057 201.809 35.2018 203.27 36.5078C204.753 37.7917 205.848 39.3743 206.557 41.2559C207.265 43.1152 207.619 45.2292 207.619 47.5977ZM241.785 81L238.465 69.4453H221.73L218.377 81H207.984L223.756 32.2578H236.34L252.178 81H241.785ZM236.074 60.8125L232.953 50.1875C232.82 49.7891 232.621 49.1361 232.355 48.2285C232.09 47.321 231.802 46.3249 231.492 45.2402C231.204 44.1335 230.928 43.0267 230.662 41.9199C230.396 40.8132 230.208 39.8724 230.098 39.0977C230.009 39.5846 229.887 40.1602 229.732 40.8242C229.6 41.4883 229.434 42.1966 229.234 42.9492C229.057 43.6797 228.869 44.4212 228.67 45.1738C228.471 45.9264 228.283 46.6348 228.105 47.2988C227.928 47.9629 227.762 48.5495 227.607 49.0586C227.475 49.5677 227.375 49.944 227.309 50.1875L224.221 60.8125H236.074ZM268.613 54.0059H271.402C274.258 54.0059 276.305 53.4414 277.545 52.3125C278.785 51.1615 279.404 49.4792 279.404 47.2656C279.404 44.9635 278.74 43.3255 277.412 42.3516C276.084 41.3776 274.025 40.8906 271.236 40.8906H268.613V54.0059ZM268.613 62.373V81H258.32V32.457H271.602C277.822 32.457 282.415 33.6634 285.381 36.0762C288.347 38.4668 289.83 42.1081 289.83 47C289.83 48.6602 289.609 50.1654 289.166 51.5156C288.723 52.8659 288.126 54.0723 287.373 55.1348C286.643 56.1751 285.79 57.0938 284.816 57.8906C283.865 58.6654 282.857 59.3184 281.795 59.8496C284.252 63.7897 286.454 67.3092 288.402 70.4082C289.243 71.7363 290.051 73.0312 290.826 74.293C291.623 75.5547 292.331 76.6836 292.951 77.6797C293.571 78.6758 294.08 79.4727 294.479 80.0703L295.043 81H283.621L273.096 62.373H268.613ZM328.844 81L325.523 69.4453H308.789L305.436 81H295.043L310.814 32.2578H323.398L339.236 81H328.844ZM323.133 60.8125L320.012 50.1875C319.879 49.7891 319.68 49.1361 319.414 48.2285C319.148 47.321 318.861 46.3249 318.551 45.2402C318.263 44.1335 317.986 43.0267 317.721 41.9199C317.455 40.8132 317.267 39.8724 317.156 39.0977C317.068 39.5846 316.946 40.1602 316.791 40.8242C316.658 41.4883 316.492 42.1966 316.293 42.9492C316.116 43.6797 315.928 44.4212 315.729 45.1738C315.529 45.9264 315.341 46.6348 315.164 47.2988C314.987 47.9629 314.821 48.5495 314.666 49.0586C314.533 49.5677 314.434 49.944 314.367 50.1875L311.279 60.8125H323.133ZM363.143 53.7402H382.4V78.9082C381.117 79.3288 379.822 79.7161 378.516 80.0703C377.21 80.4023 375.848 80.6901 374.432 80.9336C373.037 81.1549 371.565 81.332 370.016 81.4648C368.488 81.5977 366.861 81.6641 365.135 81.6641C361.505 81.6641 358.284 81.1328 355.473 80.0703C352.684 78.9857 350.326 77.3919 348.4 75.2891C346.497 73.1641 345.047 70.5521 344.051 67.4531C343.055 64.332 342.557 60.735 342.557 56.6621C342.557 52.8548 343.11 49.4128 344.217 46.3359C345.324 43.2591 346.951 40.6471 349.098 38.5C351.267 36.3307 353.923 34.6706 357.066 33.5195C360.232 32.3464 363.851 31.7598 367.924 31.7598C370.514 31.7598 373.048 32.0365 375.527 32.5898C378.007 33.1432 380.275 33.8626 382.334 34.748L378.914 42.9824C377.409 42.2298 375.704 41.599 373.801 41.0898C371.919 40.5807 369.938 40.3262 367.857 40.3262C365.6 40.3262 363.563 40.7246 361.748 41.5215C359.955 42.2962 358.417 43.403 357.133 44.8418C355.849 46.2806 354.864 48.0182 354.178 50.0547C353.492 52.0911 353.148 54.36 353.148 56.8613C353.148 59.252 353.381 61.4434 353.846 63.4355C354.333 65.4056 355.085 67.11 356.104 68.5488C357.122 69.9876 358.428 71.1055 360.021 71.9023C361.637 72.6992 363.563 73.0977 365.799 73.0977C367.26 73.0977 368.488 73.0312 369.484 72.8984C370.503 72.7656 371.454 72.6107 372.34 72.4336V62.3066H363.143V53.7402ZM435.359 56.6621C435.359 60.403 434.917 63.8118 434.031 66.8887C433.168 69.9655 431.84 72.5996 430.047 74.791C428.254 76.9824 425.985 78.6758 423.24 79.8711C420.518 81.0664 417.297 81.6641 413.578 81.6641C409.859 81.6641 406.628 81.0664 403.883 79.8711C401.16 78.6758 398.902 76.9824 397.109 74.791C395.339 72.5996 394.01 69.9655 393.125 66.8887C392.262 63.7897 391.83 60.3587 391.83 56.5957C391.83 52.8327 392.262 49.4238 393.125 46.3691C394.01 43.2923 395.35 40.6693 397.143 38.5C398.936 36.3307 401.193 34.6595 403.916 33.4863C406.661 32.291 409.904 31.6934 413.645 31.6934C417.363 31.6934 420.584 32.291 423.307 33.4863C426.029 34.6595 428.276 36.3418 430.047 38.5332C431.84 40.7025 433.168 43.3255 434.031 46.4023C434.917 49.457 435.359 52.877 435.359 56.6621ZM402.422 56.6621C402.422 59.2077 402.643 61.4987 403.086 63.5352C403.529 65.5495 404.204 67.265 405.111 68.6816C406.041 70.0762 407.203 71.1497 408.598 71.9023C409.992 72.6549 411.652 73.0312 413.578 73.0312C415.548 73.0312 417.23 72.6549 418.625 71.9023C420.042 71.1497 421.193 70.0762 422.078 68.6816C422.986 67.265 423.65 65.5495 424.07 63.5352C424.513 61.4987 424.734 59.2077 424.734 56.6621C424.734 54.1165 424.513 51.8366 424.07 49.8223C423.65 47.7858 422.986 46.0592 422.078 44.6426C421.193 43.2259 420.053 42.1413 418.658 41.3887C417.264 40.6361 415.592 40.2598 413.645 40.2598C411.719 40.2598 410.048 40.6361 408.631 41.3887C407.214 42.1413 406.041 43.2259 405.111 44.6426C404.204 46.0592 403.529 47.7858 403.086 49.8223C402.643 51.8366 402.422 54.1165 402.422 56.6621ZM486.393 81H473.344L454.252 44.2773H453.953C454.086 45.9818 454.197 47.6751 454.285 49.3574C454.374 50.7962 454.44 52.3125 454.484 53.9062C454.551 55.4779 454.584 56.8945 454.584 58.1562V81H445.387V32.457H458.369L477.428 68.8145H477.627C477.561 67.1322 477.483 65.472 477.395 63.834C477.372 63.1257 477.339 62.4062 477.295 61.6758C477.273 60.9232 477.251 60.1816 477.229 59.4512C477.206 58.6986 477.184 57.9792 477.162 57.293C477.162 56.6068 477.162 55.987 477.162 55.4336V32.457H486.393V81Z" fill="white"/>
<path d="M175.582 132V105.818H185.401C187.412 105.818 189.099 106.193 190.463 106.943C191.835 107.693 192.871 108.724 193.57 110.037C194.277 111.341 194.631 112.824 194.631 114.486C194.631 116.165 194.277 117.656 193.57 118.96C192.862 120.264 191.818 121.291 190.438 122.041C189.057 122.783 187.357 123.153 185.337 123.153H178.83V119.254H184.697C185.874 119.254 186.837 119.05 187.587 118.641C188.337 118.232 188.891 117.669 189.249 116.953C189.615 116.237 189.798 115.415 189.798 114.486C189.798 113.557 189.615 112.739 189.249 112.031C188.891 111.324 188.332 110.774 187.574 110.382C186.824 109.982 185.857 109.781 184.672 109.781H180.325V132H175.582ZM222.145 118.909C222.145 121.73 221.617 124.146 220.56 126.158C219.512 128.161 218.08 129.695 216.265 130.76C214.458 131.825 212.408 132.358 210.115 132.358C207.823 132.358 205.769 131.825 203.953 130.76C202.147 129.686 200.715 128.148 199.658 126.145C198.61 124.134 198.086 121.722 198.086 118.909C198.086 116.088 198.61 113.676 199.658 111.673C200.715 109.662 202.147 108.124 203.953 107.058C205.769 105.993 207.823 105.46 210.115 105.46C212.408 105.46 214.458 105.993 216.265 107.058C218.08 108.124 219.512 109.662 220.56 111.673C221.617 113.676 222.145 116.088 222.145 118.909ZM217.377 118.909C217.377 116.923 217.066 115.249 216.444 113.885C215.83 112.513 214.978 111.477 213.887 110.778C212.796 110.071 211.539 109.717 210.115 109.717C208.692 109.717 207.435 110.071 206.344 110.778C205.253 111.477 204.397 112.513 203.775 113.885C203.161 115.249 202.854 116.923 202.854 118.909C202.854 120.895 203.161 122.574 203.775 123.946C204.397 125.31 205.253 126.345 206.344 127.053C207.435 127.751 208.692 128.101 210.115 128.101C211.539 128.101 212.796 127.751 213.887 127.053C214.978 126.345 215.83 125.31 216.444 123.946C217.066 122.574 217.377 120.895 217.377 118.909ZM226.629 132V105.818H231.372V128.024H242.903V132H226.629ZM251.763 105.818V132H247.02V105.818H251.763ZM279.309 114.652H274.528C274.392 113.868 274.14 113.173 273.774 112.568C273.407 111.955 272.951 111.435 272.406 111.009C271.86 110.582 271.238 110.263 270.539 110.05C269.849 109.828 269.103 109.717 268.302 109.717C266.879 109.717 265.618 110.075 264.518 110.791C263.419 111.499 262.558 112.538 261.936 113.911C261.314 115.274 261.002 116.94 261.002 118.909C261.002 120.912 261.314 122.599 261.936 123.972C262.566 125.335 263.427 126.366 264.518 127.065C265.618 127.756 266.875 128.101 268.289 128.101C269.074 128.101 269.806 127.999 270.488 127.794C271.179 127.581 271.797 127.27 272.342 126.861C272.896 126.452 273.36 125.949 273.735 125.352C274.119 124.756 274.383 124.074 274.528 123.307L279.309 123.332C279.13 124.577 278.743 125.744 278.146 126.835C277.558 127.926 276.787 128.889 275.832 129.724C274.877 130.551 273.761 131.199 272.483 131.668C271.204 132.128 269.785 132.358 268.225 132.358C265.924 132.358 263.87 131.825 262.064 130.76C260.257 129.695 258.833 128.156 257.794 126.145C256.754 124.134 256.234 121.722 256.234 118.909C256.234 116.088 256.758 113.676 257.806 111.673C258.855 109.662 260.282 108.124 262.089 107.058C263.896 105.993 265.941 105.46 268.225 105.46C269.683 105.46 271.038 105.665 272.291 106.074C273.544 106.483 274.66 107.084 275.64 107.876C276.62 108.661 277.426 109.624 278.056 110.766C278.696 111.899 279.113 113.195 279.309 114.652ZM281.863 105.818H287.219L293.624 117.401H293.88L300.285 105.818H305.641L296.117 122.233V132H291.387V122.233L281.863 105.818ZM317.93 132V105.818H334.703V109.794H322.673V116.902H333.552V120.878H322.673V132H317.93ZM339.024 132V105.818H356.052V109.794H343.767V116.902H355.17V120.878H343.767V128.024H356.154V132H339.024ZM360.891 132V105.818H365.634V128.024H377.165V132H360.891ZM381.282 132V105.818H386.025V128.024H397.556V132H381.282ZM424.048 118.909C424.048 121.73 423.519 124.146 422.462 126.158C421.414 128.161 419.982 129.695 418.167 130.76C416.36 131.825 414.31 132.358 412.018 132.358C409.725 132.358 407.671 131.825 405.856 130.76C404.049 129.686 402.617 128.148 401.56 126.145C400.512 124.134 399.988 121.722 399.988 118.909C399.988 116.088 400.512 113.676 401.56 111.673C402.617 109.662 404.049 108.124 405.856 107.058C407.671 105.993 409.725 105.46 412.018 105.46C414.31 105.46 416.36 105.993 418.167 107.058C419.982 108.124 421.414 109.662 422.462 111.673C423.519 113.676 424.048 116.088 424.048 118.909ZM419.279 118.909C419.279 116.923 418.968 115.249 418.346 113.885C417.732 112.513 416.88 111.477 415.789 110.778C414.698 110.071 413.441 109.717 412.018 109.717C410.594 109.717 409.337 110.071 408.246 110.778C407.156 111.477 406.299 112.513 405.677 113.885C405.063 115.249 404.756 116.923 404.756 118.909C404.756 120.895 405.063 122.574 405.677 123.946C406.299 125.31 407.156 126.345 408.246 127.053C409.337 127.751 410.594 128.101 412.018 128.101C413.441 128.101 414.698 127.751 415.789 127.053C416.88 126.345 417.732 125.31 418.346 123.946C418.968 122.574 419.279 120.895 419.279 118.909ZM433.374 132L425.984 105.818H431.085L435.803 125.058H436.045L441.082 105.818H445.723L450.773 125.071H451.003L455.72 105.818H460.821L453.432 132H448.753L443.511 113.629H443.307L438.053 132H433.374ZM478.163 113.016C478.043 111.899 477.54 111.03 476.654 110.408C475.776 109.786 474.634 109.474 473.228 109.474C472.239 109.474 471.391 109.624 470.684 109.922C469.977 110.22 469.435 110.625 469.06 111.136C468.685 111.648 468.494 112.232 468.485 112.888C468.485 113.433 468.609 113.906 468.856 114.307C469.112 114.707 469.457 115.048 469.891 115.33C470.326 115.602 470.808 115.832 471.336 116.02C471.864 116.207 472.397 116.365 472.934 116.493L475.388 117.107C476.377 117.337 477.327 117.648 478.239 118.04C479.16 118.432 479.982 118.926 480.707 119.523C481.44 120.119 482.019 120.839 482.445 121.683C482.871 122.527 483.085 123.516 483.085 124.649C483.085 126.183 482.692 127.534 481.908 128.702C481.124 129.861 479.991 130.768 478.508 131.425C477.033 132.072 475.248 132.396 473.151 132.396C471.114 132.396 469.346 132.081 467.846 131.45C466.354 130.82 465.187 129.899 464.343 128.689C463.508 127.479 463.056 126.004 462.988 124.266H467.654C467.722 125.178 468.004 125.936 468.498 126.541C468.992 127.146 469.636 127.598 470.428 127.896C471.229 128.195 472.124 128.344 473.113 128.344C474.144 128.344 475.048 128.19 475.823 127.884C476.607 127.568 477.221 127.134 477.664 126.58C478.107 126.017 478.333 125.361 478.342 124.611C478.333 123.929 478.133 123.366 477.741 122.923C477.349 122.472 476.799 122.097 476.092 121.798C475.393 121.491 474.575 121.219 473.637 120.98L470.658 120.213C468.502 119.659 466.798 118.82 465.545 117.695C464.3 116.561 463.678 115.057 463.678 113.182C463.678 111.639 464.096 110.288 464.931 109.129C465.775 107.97 466.921 107.071 468.37 106.432C469.819 105.784 471.46 105.46 473.292 105.46C475.15 105.46 476.778 105.784 478.175 106.432C479.582 107.071 480.685 107.962 481.487 109.104C482.288 110.237 482.701 111.541 482.727 113.016H478.163ZM487.313 132V105.818H492.056V116.902H504.188V105.818H508.944V132H504.188V120.878H492.056V132H487.313ZM518.845 105.818V132H514.102V105.818H518.845ZM523.981 132V105.818H533.799C535.81 105.818 537.498 106.193 538.862 106.943C540.234 107.693 541.269 108.724 541.968 110.037C542.675 111.341 543.029 112.824 543.029 114.486C543.029 116.165 542.675 117.656 541.968 118.96C541.261 120.264 540.217 121.291 538.836 122.041C537.455 122.783 535.755 123.153 533.735 123.153H527.228V119.254H533.096C534.272 119.254 535.235 119.05 535.985 118.641C536.735 118.232 537.289 117.669 537.647 116.953C538.013 116.237 538.197 115.415 538.197 114.486C538.197 113.557 538.013 112.739 537.647 112.031C537.289 111.324 536.731 110.774 535.972 110.382C535.222 109.982 534.255 109.781 533.07 109.781H528.724V132H523.981Z" fill="white"/>
</g>
<defs>
<clipPath id="clip0_4_43">
<rect width="560" height="166" fill="white"/>
</clipPath>
</defs>
</svg>
