<svg width="79" height="74" viewBox="0 0 79 74" fill="none" xmlns="http://www.w3.org/2000/svg">
<path d="M33.7078 73.8698C31.2455 73.6613 27.429 72.9062 25.2995 72.2063C23.2078 71.5187 19.0776 69.6259 17.1214 68.4584C15.223 67.3254 12.2732 64.8446 10.0513 62.5123C5.0954 57.3103 2.04324 51.4633 0.486494 44.1891C-0.170389 41.1197 -0.159949 33.1663 0.504996 30.0887C2.2597 21.9675 6.56096 14.6074 12.5196 9.53C18.7526 4.21883 25.5969 1.31881 33.5165 0.633371L35.6216 0.451168V37.2469C35.6216 72.1355 35.5984 74.0404 35.175 73.9994C34.9294 73.9756 34.2692 73.9173 33.7078 73.8698ZM43.0835 18.2299L43.149 0.131947L61.0745 0.0659712L79 0L78.9981 1.09433C78.9961 2.8441 78.2843 7.14144 77.5984 9.54979C74.8845 19.0787 68.3448 27.185 59.4837 32.0039C55.3346 34.2604 50.1307 35.7771 45.2379 36.156L43.0175 36.3279L43.0835 18.2299Z" fill="white"/>
</svg>
